<?xml version="1.0" encoding="utf-8"?>
<!-- Generator: Adobe Illusunflowerrator 27.0.0, SVG Export Plug-In . SVG Version: 6.00 Build 0)  -->
<svg version="1.1" id="Layer_2_00000155834498327344079750000008897691042901094048_"
	 xmlns="http://www.w3.org/2000/svg" xmlns:xlink="http://www.w3.org/1999/xlink" x="0px" y="0px" viewBox="0 0 400 400"
	 style="enable-background:new 0 0 400 400;" xml:space="preserve">
<style type="text/css">
	.sunflower0{fill:#0C6306;}
	.sunflower1{fill:#196D12;}
	.sunflower2{fill:#539A44;}
	.sunflower3{fill:#22701C;}
	.sunflower4{fill:#7BBB50;}
	.sunflower5{fill:#24721E;}
	.sunflower6{fill:#526C51;}
	.sunflower7{fill:#516650;}
	.sunflower8{fill:#7CBC50;}
	.sunflower9{fill:#7ABA4E;}
	.sunflower10{fill:#448D3F;}
	.sunflower11{fill:#68AB4A;}
	.sunflower12{fill:#66A949;}
	.sunflower13{fill:#4D9442;}
	.sunflower14{fill:#529844;}
	.sunflower15{fill:#725A0C;}
	.sunflower16{fill:#6F5204;}
	.sunflower17{fill:#7C6416;}
	.sunflower18{fill:#705E12;}
	.sunflower19{fill:#756015;}
	.sunflower20{fill:#74611E;}
	.sunflower21{fill:#77631D;}
	.sunflower22{fill:#7A651A;}
	.sunflower23{fill:#7D6A24;}
	.sunflower24{fill:#816E26;}
	.sunflower25{fill:#847034;}
	.sunflower26{fill:#EA9E29;}
	.sunflower27{fill:#FCF26E;}
	.sunflower28{fill:#FBDE83;}
	.sunflower29{fill:#FCF26D;}
	.sunflower30{fill:#E6BF30;}
	.sunflower31{fill:#E4BE30;}
	.sunflower32{fill:#E3BD30;}
	.sunflower33{fill:#E4BD2F;}
	.sunflower34{fill:#C8A72C;}
	.sunflower35{fill:#E4BE2F;}
	.sunflower36{fill:#E0B92D;}
	.sunflower37{fill:#A55720;}
	.sunflower38{fill:#FAEE6A;}
	.sunflower39{fill:#E7BF2F;}
	.sunflower40{fill:#E6BE2F;}
	.sunflower41{fill:#BF6C15;}
	.sunflower42{fill:#B4621A;}
	.sunflower43{fill:#E6BF2F;}
	.sunflower44{fill:#FBF16C;}
	.sunflower45{fill:#FBF16D;}
	.sunflower46{fill:#E5BE2F;}
	.sunflower47{fill:#CD7F1E;}
	.sunflower48{fill:#F1E360;}
	.sunflower49{fill:#EADC5B;}
	.sunflower50{fill:#E7D757;}
	.sunflower51{fill:#F5EA66;}
	.sunflower52{fill:#FDFCEC;}
	.sunflower53{fill:#FDFBE4;}
	.sunflower54{fill:#FDFCF1;}
	.sunflower55{fill:#FDFCED;}
	.sunflower56{fill:#FDFAD8;}
	.sunflower57{fill:#FCF9C2;}
	.sunflower58{fill:#FDFAD7;}
	.sunflower59{fill:#FCF8BF;}
	.sunflower60{fill:#53201A;}
	.sunflower61{fill:#8C2E2C;}
	.sunflower62{fill:#060503;}
	.sunflower63{fill:#040302;}
	.sunflower64{fill:#FEFEFE;}
</style>
<g id="root" transform-origin="200 390">
	<g id="sunflowerem">
		<path class="sunflower0" d="M159.5,293.4c1.9-2.5,4.7-3.3,7.5-3.1c3.5,0.2,7-0.1,10.5,0.6c2,0.4,4,0.8,6,0.7c1.8-0.1,3-1.1,3.3-2.9
			c0.7-4,0.4-8,0.4-11.9c0.1-5.9-0.1-11.8,0-17.6c0-2,0.5-3.9,0.7-5.9c0.1-0.8,0.5-0.9,1.1-0.9c1,0,1.9,0,2.9,0.1
			c0,0.8,0.1,1.6,0.1,2.4c0,10.4-0.2,20.9,0,31.3c0.1,7.9,3.1,14.6,9.4,19.7c0.2,0.7,0.4,1.3,0.7,2c0.7,2.3,2.1,4.5,1.2,7
			c-2.8,0-4-1.9-4.7-4.3c-0.6-2.4-2-4.4-3.8-6.1c-8.9-8.7-19.1-11.3-30.8-6.7c-0.6,0.4-0.4,1-0.4,1.5c0.4,2.6,0.7,5.2,1.4,7.8
			c2,7.2,6.1,12.6,13.3,15.4c4.2,1.6,8.5,2.1,12.9,2.2c3.4,0.1,6.8-0.3,10.1,0.4c-0.1,1.3,0.2,2.6,0.4,4c0.8,5.3,3.1,9.7,7.6,12.8
			c1.7,1.9,2.6,2.1,4.9,1c1.5-0.7,3-1.6,4.1-2.9c1.9-2.1,2.6-4.4,1.4-7.1c-0.7-1.7-1.7-3.2-2.6-4.7c-0.7-1.1-1.7-2.1-1.8-3.5
			c1.6,0,3.3-0.1,4.9,0.1c4.4,0.5,8.7,0,12.9-0.7c5.4-0.9,10.2-3.3,14.2-7c0,1.2,0,2.4,0,3.7c-3.2,3-7.2,4.5-11.4,5.8
			s-8.5,2-12.6,3.5c1.2,2.3,4.1,2.4,6,1.4c3-1.6,6.2-2.6,9.6-3.3c3-0.6,6-1,9.1-1.2c4.3-0.4,8.6-0.3,12.8-0.9
			c2.6-0.3,3.8,1.4,5.4,2.7c-0.9,1.5-2.5,1.6-4,1.8c-1.3,0.2-2.7-0.4-4,0.4c-7-0.1-14-0.9-21,0.7c-4.9,1.1-9.3,3.4-13.3,6.3
			c-1.3,0.9-1.8,2.3-1.2,4s2,1.7,3.4,1.7c3.9-0.1,7.8-0.2,11.6,0.4c0,2.5-1.3,4.2-3.6,5.2c-0.6,0.2-1.3,0.2-1.5,1
			c-8.9-3.3-18.1-4.7-27.6-4.2c-0.8-1.4-2.3-1.6-3.7-2.1c0-4.3-2.5-7.5-7-8.7c-8-2-16-2.2-24.1,0.1c-4.2,1.2-8.1,3-12.1,4.6
			c-2.9-2.6-6.1-4.5-10.2-4.1c3.8-2.9,8.2-4.2,12.9-4.7c7.7-0.8,15.4-0.9,23.1-1.2c3.2-0.1,6.4-0.4,9.6-1.4c-3.5,0-7,0.1-10.4,0
			c-8.2-0.4-14.7-4.2-19.6-10.7c-1.4-1.8-1.8-4.1-2.2-6.3c0.9-2.4,0.2-4.7-0.2-7.1C160.3,300.9,159.1,297.3,159.5,293.4L159.5,293.4
			z"/>
		<path class="sunflower1" d="M147.9,336c4.1-0.4,7.3,1.4,10.2,4.1c-3.9,3-7.8,6-11.8,9c-0.3,0.1-0.6,0.3-0.8,0.3c-0.8,0.1-1.6,1.2-2.3,0.4
			c-0.6-0.8,0.3-1.7,0.7-2.5c1.6-2.6,3.6-4.8,5.8-7c0.6-0.6,1.4-1.1,1.5-2.3c-10.4,1.6-18.7,6.2-24.2,15.3c-1.1,0.8-1.9,1.8-2.6,3
			c-2.5,4.4-3.8,9.1-4.6,14c-0.3,1.8,0.5,3.7,2.5,4.6c2.3,1.1,4.7,1.3,7.1,1.3c12.1,0.1,24.2,0.1,36.4,0c1.7,0,3.7-0.1,4.9-1.8
			c2-3.8,3.8-7.7,5.5-11.6c3.6-4.9,7.1-10,12-13.7c3.9-2.9,8.1-4.9,13.1-5.2c1.3,0.5,2.8,0.8,3.7,2.1c-0.4,0.1-0.8,0.3-1.2,0.4
			c-13.1,3.8-21.8,12.3-26.2,25c-2.2,6.3-0.5,11.1,4.7,14.2c3.6,2.1,7.6,3.4,11.7,4.2c0.4,0.6,1.1,0.8,1.7,1.1
			c4.2,1.9,8.7,2.5,13.2,2.9c2.5,0.2,5.1,0.1,7.6,0.5c5.9,0.8,11.8,1.2,17.7,1.3c8.3,0.2,16.6-0.6,24.9-1.8
			c5.8-0.9,11.5-2.2,17.1-3.7c3-0.8,3.7-2.3,3-5.3c-0.5-2.2-0.9-4.4-1.3-6.5c-0.9-4.3-2-8.5-5.8-11.3c-0.9-2-2-3.8-3.4-5.5
			c-5.9-7.8-13.3-12.7-23.6-11.9c-0.4,0-1.1-0.2-1.3,0.3c-0.2,0.4,0.3,0.7,0.6,1c2.1,2.3,4.1,4.6,6.2,6.8c0.6,0.7,1.4,1.4,1,2.4
			s-1.5,1.2-2.5,1.1c-2.4-3.2-5.9-5-9.4-6.9c-2.4-1.2-5-2.1-7-3.9c0.2-0.8,1-0.8,1.5-1c2.3-1,3.5-2.7,3.6-5.2
			c6.2-0.4,12.2,0.5,18.1,2.7c6.2,2.4,11.4,6.2,16.5,10.4c2.6,3.7,5.1,7.5,7.7,11.2c0.7,1.3,1.2,2.8,2.2,4c0,1.4,1,2.4,1.5,3.6
			c-1.6,1.6-1.8,3.4-0.9,5.5c0.3,0.8,0.5,1.6,0.7,2.4c0.9,3.5-0.3,6.3-3.5,7.9c-1.1,0.6-2.3,1-3.6,1.3c-4.5,0.9-9.1,1.7-13.6,2.6
			c-5.6,1.1-11.3,2.4-16.9,3.6c-8.5,0-17,0-25.5-0.1c-1.1-1.1-2.6-1.7-4.1-1.7c-6,0.2-11.8-0.7-17.6-1.9c-6.3-1.2-12.3-3.4-17.6-7.2
			c-2.5-1.8-4.4-4.1-6.5-6.2c-0.4-1.8-1.5-3-3.1-3.5c-2.5-0.8-5.1-1-7.7,0c-5.1,1.9-10.4,2.4-15.6,2.3c-4-0.1-7.9-0.4-11.9-1
			c-5.5-0.8-11-1.2-16.5-1.9c-3.4-0.4-4.4-1.9-4.2-5.3c0.1-1.1,0.4-2.2,0.7-3.3c1-3.9,2.8-7.6,2.9-11.7l0,0c0.1-0.1,0.2-0.3,0.3-0.4
			c0.7-1.4,0.4-3.1,1.4-4.4c3.8-1.3,6.1-4.4,8.7-7.2c0.9-1,2.2-1.8,2.3-3.3l0,0c0.3,0.1,0.5,0,0.7-0.3
			C137.7,340.2,142.8,338.1,147.9,336L147.9,336z"/>
		<path class="sunflower2" d="M215.2,324.7c0.2,1.4,1.1,2.4,1.8,3.5c1,1.5,1.9,3.1,2.6,4.7c1.2,2.7,0.5,5-1.4,7.1c-1.1,1.3-2.6,2.2-4.1,2.9
			c-2.3,1.1-3.2,0.9-4.9-1c0.3,0,0.6,0,0.9-0.1c2.2-0.6,2.5-1.3,1.9-3.5s-1.1-4.4-1.7-6.6c-1.5-6-3-12-7.3-16.7
			c0.9-2.6-0.5-4.7-1.2-7c-0.2-0.7-0.4-1.4-0.7-2c2.2-1.8,2.8-4.2,2.4-7c-1-6.1-2.1-12.2-2-18.4c0.1-7.6,0-15.1,0-22.7
			c0-1.7,0.1-3.4-0.3-5c3.8,0,7.5,0,11.3,0c-0.1,7.6,0.2,15.1,0.3,22.7c0.1,8.5,0.4,16.9-0.3,25.4c-0.3,3.2-0.5,6.5-1.1,9.7
			c-0.5,2.9,0.1,3.9,3.2,4.7c1.4,4.2,3.5,4.4,7.7,3.8c1.1-0.1,2.2-0.5,3.3,0.2c0,0.8-0.5,1-1.1,1.2c-1.2,0.3-2.4,0.6-3.7,0.7
			C218.3,321.3,215.6,322,215.2,324.7z"/>
		<path class="sunflower3" d="M214.8,315.2c-3.1-0.8-3.7-1.8-3.2-4.7c0.6-3.2,0.8-6.4,1.1-9.7c0.7-8.5,0.3-16.9,0.3-25.4
			c-0.1-7.6-0.4-15.1-0.3-22.7c0.3,0,0.6-0.1,0.9-0.1c3.7-0.1,3.6,0,3.8,3.7c0.7,12.3,0.2,24.6,0.3,36.8c0.1,3.7,2.3,5.1,5.6,3.3
			c4.8-2.7,9.8-4.8,15.2-5.4c6.3-0.7,12.3,0.2,18,3c1.5,0.8,1.3,2.5,1.4,3.9c1.1,7.7-3.3,18.7-10.8,22.9c0-1.2,0-2.4,0-3.7
			c0.5-1.5,0.9-3.1,1.6-4.6c1.5-3.4,3-6.9,2.4-10.7c1.8-4.2,0.3-5.2-3.5-5.6c-3.4-0.3-6.7,0-10.1,0.5c-5.4,0.9-10.4,3-14.5,6.7
			C219.4,306.8,216.8,310.8,214.8,315.2L214.8,315.2z"/>
		<path class="sunflower4" d="M201.4,252.7c0.4,1.7,0.3,3.3,0.3,5c0,7.6,0,15.1,0,22.7c0,6.2,1,12.3,2,18.4c0.5,2.7-0.2,5.1-2.4,7
			c-6.3-5.1-9.3-11.8-9.4-19.7c-0.1-10.4,0-20.9,0-31.3c0-0.8-0.1-1.6-0.1-2.4C195,252.5,198.2,252.6,201.4,252.7L201.4,252.7z"/>
		<path class="sunflower5" d="M283.6,376c-0.5-1.2-1.4-2.2-1.5-3.6c2.5,0.4,4.9,0.3,7.4-0.1c4.2-0.7,8.4-1.6,12.6-2.1
			c2.7-0.3,4.7-2.2,4.3-4.8c-0.6-4.4-1.9-8.5-5.4-11.5c-0.8-1.4-1.5-2.8-2.3-4.2c-1.4-2.5-3.3-4.4-6.1-5.2c-0.2-0.3-0.5-0.6-0.7-0.8
			c-6.5-5.5-14.2-8.2-22.3-10.1c-3.8-0.9-7.8-1.3-11.5-2.5c1.3-0.8,2.7-0.2,4-0.4c1.5-0.2,3.1-0.2,4-1.8c3.6,0.7,7.3,1.4,10.9,2.1
			c0.2,0.1,0.4,0.3,0.6,0.4c8.6,3.6,16.4,8.5,22.9,15.2c1.9,2,3.7,3.9,5.6,5.9c0,0.6,0.6,0.9,0.8,1.4c0.1,0.6,0.1,1.2,0.2,1.8
			c0.7,3.2,1.7,6.4,2.2,9.7c0.6,3.9,0.6,6.3-4.5,7.9c-4.4,1.3-9,1.5-13.6,1.4C288.6,374.6,286,375.1,283.6,376L283.6,376z"/>
		<path class="sunflower6" d="M283.6,376c2.4-1,5-1.5,7.6-1.5c4.6,0.1,9.2-0.1,13.6-1.4c5-1.5,5.1-4,4.5-7.9c-0.5-3.3-1.5-6.5-2.2-9.7
			c-0.1-0.6-0.1-1.2-0.2-1.8c3.6,4.1,5.1,9.1,5.8,14.4c0.4,3.2-1.1,5.2-4.1,6.3c-2.9,1.1-5.9,1.5-8.9,1.8c-2.9,0.3-5.7,0.4-8.5,1.1
			c-3.8,0.9-5.6,3-5.7,6.9c0,1.5,0,3,0.4,4.5c0.6,2.4-0.3,4.1-2.8,5c-4.1,1.6-8.4,2.6-12.7,3.6c-3.1,0.7-6.3,1.2-9.6,1.5
			c-4.4,0.4-8.7,0.9-13.1,0.3c-0.6-0.1-1.2,0-1.8-0.1c5.6-1.2,11.3-2.4,16.9-3.6c4.5-0.9,9.1-1.7,13.6-2.6c1.2-0.2,2.4-0.7,3.6-1.3
			c3.2-1.6,4.4-4.4,3.5-7.9c-0.2-0.8-0.4-1.7-0.7-2.4C281.8,379.5,282,377.6,283.6,376L283.6,376z"/>
		<path class="sunflower7" d="M119.1,357.9c-0.1,4.1-1.9,7.8-2.9,11.7c-0.3,1.1-0.6,2.2-0.7,3.3c-0.2,3.4,0.8,4.8,4.2,5.3
			c5.5,0.7,11,1.1,16.5,1.9c4,0.6,7.9,0.9,11.9,1c5.3,0.1,10.6-0.4,15.6-2.3c2.5-0.9,5.1-0.7,7.7,0c1.6,0.5,2.8,1.7,3.1,3.5
			c-0.6,0-1.2,0-1.9,0c-13.4,0-26.8,0.1-40.2,0c-4.2,0-8.3-0.4-12.4-0.7c-3.7-0.3-6.1-3-6.7-7.5
			C112.6,367.7,114.5,362.2,119.1,357.9L119.1,357.9z"/>
		<path class="sunflower6" d="M172.6,382.2c0.6,0,1.2,0,1.9,0c2.1,2.2,4.1,4.4,6.5,6.2c5.3,3.9,11.3,6,17.6,7.2c5.8,1.1,11.6,2.1,17.6,1.9
			c1.5-0.1,2.9,0.6,4.1,1.7c-10.6,0.6-21.2,0.5-31.3-3.5c-4.4-1.8-8.7-4-12.5-7C174.4,387.1,173.4,384.7,172.6,382.2L172.6,382.2z"
			/>
		<path class="sunflower6" d="M306.1,352.4c-1.9-2-3.7-3.9-5.6-5.9c-6.5-6.8-14.3-11.6-22.9-15.2c-0.2-0.1-0.4-0.2-0.6-0.4
			c6.3,0.2,11.8,2.5,16.9,6c5.2,3.5,9.1,8.2,11.8,14C305.9,351.3,306.3,351.8,306.1,352.4L306.1,352.4z"/>
		<path class="sunflower7" d="M159.5,293.4c-0.4,3.8,0.8,7.5,1.6,11.2c0.5,2.3,1.1,4.7,0.2,7.1c-2.9-4.9-4.7-10-2.9-15.8
			C158.7,295,159.1,294.2,159.5,293.4L159.5,293.4z"/>
		<path class="sunflower6" d="M131.8,342.6c-0.1,1.5-1.4,2.4-2.3,3.3c-2.5,2.8-4.9,5.9-8.7,7.2c2.1-4.4,4.6-8.5,9.6-10.4
			C130.9,342.6,131.4,342.6,131.8,342.6z"/>
		<path class="sunflower6" d="M132.6,342.3c-0.2,0.3-0.4,0.4-0.7,0.3C131.9,342.1,132.2,342.2,132.6,342.3z"/>
		<path class="sunflower7" d="M119.4,357.5c-0.1,0.1-0.2,0.3-0.3,0.4C119.2,357.7,119.3,357.6,119.4,357.5z"/>
		<path class="sunflower8" d="M194,389.9c-4.1-0.7-8.1-2-11.7-4.2c-5.3-3.1-6.9-7.9-4.7-14.2c4.5-12.8,13.1-21.2,26.2-25
			c0.4-0.1,0.8-0.3,1.2-0.4c9.5-0.5,18.7,0.9,27.6,4.2c2.1,1.8,4.7,2.7,7,3.9c3.5,1.8,6.9,3.6,9.4,6.9c-1.7,2-3.9,3.3-6,4.8
			c-11.6,8.3-24.4,14.6-36.6,22c-0.8,0.5-2,0.7-2.2,2C200.8,389.9,197.4,389.9,194,389.9L194,389.9z"/>
		<path class="sunflower9" d="M258.1,330.9c3.8,1.2,7.7,1.7,11.5,2.5c8.1,1.9,15.8,4.6,22.3,10.1c0.3,0.2,0.5,0.5,0.7,0.8
			c-1.5,2.7-3.9,4.6-6.5,6c-4.6,2.4-9.3,4.6-13.9,6.8c-5-4.2-10.3-8-16.5-10.4c-5.9-2.2-11.9-3.1-18.1-2.7
			c-3.9-0.6-7.7-0.4-11.6-0.4c-1.4,0-2.8,0.1-3.4-1.7c-0.6-1.7-0.1-3.1,1.2-4c4-2.9,8.4-5.2,13.3-6.3
			C244.1,330,251.1,330.8,258.1,330.9L258.1,330.9z"/>
		<path class="sunflower4" d="M201.3,344c-4.9,0.3-9.2,2.3-13.1,5.2c-5,3.7-8.4,8.8-12,13.7c-2.8-0.5-5.5-0.9-8.3-1.7
			c-7.2-2.2-13.5-6.1-19.7-10.2c-0.7-0.5-1.9-0.8-1.9-2c3.9-3,7.8-6,11.8-9c4-1.6,7.9-3.4,12.1-4.6c8-2.3,16-2.1,24.1-0.1
			C198.8,336.5,201.3,339.7,201.3,344L201.3,344z"/>
		<path class="sunflower4" d="M203.2,314.9c4.3,4.8,5.8,10.7,7.3,16.7c0.5,2.2,1.1,4.4,1.7,6.6c0.6,2.2,0.3,2.9-1.9,3.5
			c-0.3,0.1-0.6,0.1-0.9,0.1c-4.6-3.1-6.8-7.5-7.6-12.8c-0.2-1.3-0.4-2.6-0.4-4c0.1-5.1-0.6-5.8-5.6-5.8c-0.1,0-0.2,0-0.4,0
			c-6,0.2-11.3-1.6-16.2-5c-4.5-3.1-8.2-7.1-11.6-11.4c-1.3-1.6-3.1-2.9-3.7-5.1c11.8-4.7,22-2,30.8,6.7c1.7,1.7,3.1,3.7,3.8,6.1
			C199.1,313,200.3,314.9,203.2,314.9L203.2,314.9z"/>
		<path class="sunflower10" d="M163.9,297.8c0.5,2.2,2.4,3.5,3.7,5.1c3.4,4.2,7.1,8.3,11.6,11.4c4.8,3.3,10.2,5.2,16.2,5c0.1,0,0.2,0,0.4,0
			c5,0,5.7,0.8,5.6,5.8c-3.4-0.7-6.8-0.3-10.1-0.4c-4.4-0.1-8.8-0.6-12.9-2.2c-7.2-2.8-11.3-8.2-13.3-15.4c-0.7-2.6-1-5.2-1.4-7.8
			C163.5,298.8,163.3,298.2,163.9,297.8L163.9,297.8z"/>
		<path class="sunflower10" d="M251.2,301.8c0.6,3.9-0.9,7.3-2.4,10.7c-0.6,1.5-1,3.1-1.6,4.6c-4,3.8-8.8,6.2-14.2,7
			c-4.3,0.7-8.6,1.2-12.9,0.7c-1.6-0.2-3.3-0.1-4.9-0.1c0.5-2.7,3.1-3.4,5.7-3.6c1.3-0.1,2.5-0.4,3.7-0.7c0.6-0.2,1.1-0.4,1.1-1.2
			c0.5-0.1,1-0.1,1.4-0.2c5.2-1.1,9.5-4,13.4-7.5C244.2,308.4,247.4,304.7,251.2,301.8L251.2,301.8z"/>
		<path class="sunflower11" d="M204.2,389.8c0.2-1.2,1.4-1.5,2.2-2c12.2-7.4,25-13.7,36.6-22c2.1-1.5,4.4-2.8,6-4.8c1,0,2-0.1,2.5-1.1
			c0.4-1-0.3-1.7-1-2.4c-2.1-2.3-4.2-4.5-6.2-6.8c-0.3-0.3-0.8-0.6-0.6-1c0.2-0.6,0.8-0.3,1.3-0.3c10.2-0.8,17.7,4.1,23.6,11.9
			c1.3,1.7,2.5,3.5,3.4,5.5c0,2.9-1.6,4.9-3.8,6.7c-2.6,2.1-6,2.9-8.7,4.8c-4.8,3.4-9.8,6.4-15.2,8.8c-9.4,4.2-19.3,5.5-29.5,4.8
			C211.2,391.7,207.7,391.1,204.2,389.8L204.2,389.8z"/>
		<path class="sunflower12" d="M146.4,349.1c0.1,1.2,1.2,1.5,1.9,2c6.2,4.1,12.5,8,19.7,10.2c2.7,0.8,5.5,1.2,8.3,1.7
			c-1.7,3.9-3.5,7.8-5.5,11.6c-1.5-0.6-3.1-0.2-4.7-0.4c-6.3-1-12.2-3.1-17.9-6c-5.6-2.8-11-5.8-16.8-8.2c-2.9-1.2-4.2-3.5-4.3-6.5
			c5.5-9,13.8-13.7,24.2-15.3c-0.1,1.1-0.9,1.7-1.5,2.3c-2.1,2.2-4.2,4.4-5.8,7c-0.4,0.7-1.3,1.7-0.7,2.5s1.5-0.4,2.3-0.4
			C145.8,349.4,146.1,349.2,146.4,349.1L146.4,349.1z"/>
		<path class="sunflower13" d="M204.2,389.8c3.4,1.2,7,1.9,10.6,2.1c10.2,0.7,20.1-0.6,29.5-4.8c5.4-2.4,10.4-5.4,15.2-8.8
			c2.7-1.9,6.1-2.7,8.7-4.8c2.2-1.7,3.8-3.7,3.8-6.7c3.8,2.8,4.9,7,5.8,11.3c0.4,2.2,0.8,4.4,1.3,6.5c0.7,3.1,0,4.5-3,5.3
			c-5.6,1.5-11.3,2.8-17.1,3.7c-8.2,1.2-16.5,2-24.9,1.8c-5.9-0.1-11.8-0.5-17.7-1.3c-2.5-0.4-5.1-0.3-7.6-0.5
			c-4.5-0.3-9-0.9-13.2-2.9c-0.6-0.3-1.2-0.5-1.7-1.1C197.4,389.9,200.8,389.9,204.2,389.8L204.2,389.8z"/>
		<path class="sunflower14" d="M127.1,353.4c0.1,3.1,1.4,5.3,4.3,6.5c5.7,2.4,11.2,5.4,16.8,8.2c5.7,2.8,11.6,5,17.9,6
			c1.5,0.2,3.1-0.2,4.7,0.4c-1.2,1.7-3.2,1.8-4.9,1.8c-12.1,0.1-24.2,0.1-36.4,0c-2.3,0-4.8-0.2-7.1-1.3c-2-0.9-2.8-2.8-2.5-4.6
			c0.7-4.9,2.1-9.6,4.6-14C125.1,355.2,126,354.2,127.1,353.4L127.1,353.4z"/>
		<path class="sunflower12" d="M272.3,357.1c4.6-2.3,9.3-4.4,13.9-6.8c2.7-1.4,5-3.2,6.5-6c2.8,0.9,4.7,2.7,6.1,5.2
			c0.8,1.4,1.5,2.8,2.3,4.3c-0.4,0.3-0.3,0.7-0.4,1.1c-0.8,4.2-2.8,7.5-6.5,9.8c-4.4,2.7-9.2,3.8-14.3,3.7
			C277.4,364.6,274.9,360.9,272.3,357.1L272.3,357.1z"/>
		<path class="sunflower13" d="M280,368.4c5.1,0.1,9.9-1,14.3-3.7c3.7-2.3,5.7-5.6,6.5-9.8c0.1-0.4,0-0.9,0.4-1.1c3.5,3.1,4.8,7.2,5.4,11.5
			c0.3,2.6-1.6,4.5-4.3,4.8c-4.2,0.5-8.4,1.3-12.6,2.1c-2.4,0.4-4.9,0.6-7.4,0.1C281.2,371.2,280.7,369.7,280,368.4L280,368.4z"/>
		<path class="sunflower4" d="M251.2,301.8c-3.8,3-7,6.6-10.6,9.8c-3.9,3.5-8.1,6.4-13.4,7.5c-0.5,0.1-1,0.1-1.4,0.2
			c-1.1-0.6-2.2-0.3-3.3-0.2c-4.2,0.5-6.3,0.4-7.7-3.8c2.1-4.4,4.6-8.4,8.3-11.7c4.2-3.7,9.1-5.9,14.5-6.7c3.3-0.5,6.6-0.9,10.1-0.5
			C251.4,296.6,253,297.6,251.2,301.8L251.2,301.8z"/>
	</g>
	<g id="flower" transform-origin="200 230">
		<g id="flower_inside">
			<path class="sunflower15" d="M62.1,123.1c2.7-0.7,4.8-0.8,5.5-2.5c0.8-1.7-0.3-3.4-1.6-4.4c-4.4-3.5-6.6-8.4-7.4-13.6
				c-0.9-5.6-1.2-11.5,0.6-17c2.4-7.3,8.8-9.5,15.7-10.7c4-0.7,8.1-0.6,12.1-0.7c3.5-0.1,4.6-1.6,4-5.2c-1.2-6.2-1.1-12.6-0.6-18.8
				c0.6-6.8,6-9.7,11.8-11.8s11.6-0.9,17,1.4c4,1.7,7.9,4,11.9,5.9c3.1,1.5,3.7,1,5-2.1c2.2-5.2,2.4-10.9,5.1-16
				c3.7-7.1,9.6-8.4,17-6.3c3.7,1,6.9,3.3,9.9,5.5c2.1,1.5,4.1,3,6.5,4.1c1.3,1.8,2.3,3.8,3.4,5.8c1.4,2.5,0.8,3.9-2,5.2
				c-1.2-0.4-1.6-1.5-2.2-2.4c-3.8-6-9.3-9.8-15.8-12.3s-11.1-0.3-13.8,6.1c-4,9.4-3.2,18.2,2.1,26.9c1.9,3.1,3.6,6.3,4.4,9.9
				c0.2,0.8,0.2,1.6,0.4,2.3c0.8,2.7,1.9,3.3,4.5,2.2c3.5-1.5,6.6-3.8,10.3-5c2.4-0.9,4.9-1.8,7.3-2.5c6.8-2,7.6-4,4-10.1
				c-0.7-1.8-1.7-3.5-1-5.5c1.2-1.2,1.7-3.2,4-2.8c2.1,3.2,3,6.9,4.2,10.5c0.8,2.8,2.9,3.9,5.5,3.4c9.8-1.6,19.6-1,29.5-1.4
				c4.7-0.2,6.9-2.7,7.1-7.8c0.2-5.2-0.2-10.4,0.2-15.6c0.4-2.7,2.6-4.2,4.2-6.1c4.7-3.4,9.3-7,14.1-10.2c4.9-3.2,10.1-5.6,16.3-4.8
				c4.6,0.6,7.5,3.6,10,6.9c5.6,7.5,9.1,15.8,9.3,25.3c0,3,1,3.6,3.7,2.5c4.2-1.7,7.8-4.4,12.5-5.2c8.4-1.4,16.5,1.4,20.5,7.8
				c1.2,2,2,4.2,2,6.7c-0.1,5,0.2,10.1-1.3,15c-0.9,3.1,0.7,4.9,4,5c5.3,0.2,10.6-0.3,15.9,0.6c6.3,1.1,11.3,4.8,12.9,11.6
				c1.4,6,1.1,11.5-0.3,17.2c-0.9,3.7-3.3,6.6-6.1,9.1c-1.1,1-2.3,2.1-1.9,3.7c0.4,1.7,2.2,1.7,3.6,2c7.3,1.7,13.5,4.8,18.2,11
				c2.8,3.7,3.3,7.8,2.5,11.8c-2.3,11.3-8.2,19.8-19.6,23.7c-1.6,0.5-3.1,0.1-4.7,0.6c-1,0.1-2,0-2.9-0.6c-0.8-1.3-1.4-2.7-1.5-4.2
				c0.8-1.7,2.6-2.1,4.1-2.7c3.2-1.4,6.4-2.8,9.3-4.6c4.9-3.1,8-7.4,8.9-13.2c-2.3-8.9-8.9-13.2-17-15.7c-6.2-1.9-12-0.4-17.8,1.9
				c-1-0.5-1.6-1.3-1.8-2.4c0.5-2.4,2.7-3.2,4.4-4.4c5.7-4.4,11.1-8.9,13.9-15.8c2.6-6.3,3.9-12.7,0.7-19.3c-0.8-1-2-1.5-3.2-1.9
				c-12.6-3.6-24.1-2.6-33.4,7.7c-1.5,1-2.8,2.3-4.2,3.4c-4.9,4-5.3,5.6-2.3,11.1c1.9,3.5,4.2,6.7,5.8,10.2c0.5,1.1,1.2,2.2,1.1,3.5
				c-0.4,1-1.1,1.7-2.2,1.8c-1.7-0.2-2.3-1.7-3.1-2.9c-6.8-9.6-14-18.9-22.5-27.1c-4.3-4.1-8.9-7.7-13.8-10.9
				c-15.9-11.7-33.6-17.7-53.3-18.5c-31.6-1.3-57.9,10.4-80.5,32c-12.5,11.9-21.4,26.2-27.9,42.1c-3.2,6.7-4.8,13.7-4.5,21.2
				c0.1,3,0.5,6.1-0.5,9c-1,1.3-2.2,2.3-4,1.6c-2.5-3.3-1.5-7.2-1.3-10.8c0.4-6.9,1.2-13.7,3.9-20.2c0.9-2.1,0.6-3.8-2-4.4
				c-4.1-1.7-7.7-4.3-11.5-6.5c-9.2-5.2-18.2-5.3-27.4-0.2c-6.5,3.6-12.5,7.7-16.5,14.2c-0.6,1-1.2,2-2.4,2.3
				c-2.4-0.4-2.3-2-1.7-3.8c2.5-7.4,8.4-11.7,14.7-15.5C49.9,127.8,59.3,123.8,62.1,123.1L62.1,123.1z"/>
			<path class="sunflower16" d="M94.4,172.6c1.1-0.4,2.2-0.9,3.2-1.4c3,1.8,2.8,5.2,4.2,7.8c1.9,7.6,6,13.9,11.3,19.6
				c14.1,17.1,31.4,29.5,53,35.4c9.2,4.5,18.9,6.6,29.1,6.9c0.9,0,1.8,0.1,2.7,0.3c3.8,2.2,7.9,1.4,12,1
				c23.1-2.1,44.8-8.6,64.5-21.1c12.2-7.8,23.3-16.9,30.6-29.7c11.7-20.4,11.4-40.7-0.8-60.8c-0.7-1.6-1.4-3.2-0.2-4.8
				c0.7-0.5,1.3-0.9,2-1.4c1.7,0.4,2.2,2.1,3.2,3.3c3.4,4.4,6.5,5.1,11.5,2.7c1-0.5,1.9-1.4,3.1-0.6c0.9,0.4,1.4,1,1.4,2.1
				c0.4,1.4-0.6,2-1.5,2.6c-1.8,0.6-3.7,1.2-5.2,2.4c-2.4,1.9-3.7,4.4-2.7,7.5c1.6,4.6,2.6,9.4,4,14c1.8,5.9,3.6,7.1,9.8,7.3
				c2.9,0.1,5.9-1,8.5,0.9c1,1.1,1.6,2.4,1.4,4c-0.7,1.7-2.2,2-3.7,2.5c-2.9-0.2-5.4-2-8.4-1.6c-1.1,0-2.2-0.3-3.4-0.2
				c-3.4,0-5.8,1.5-6.4,4.9c-1,5.2-3.4,9.7-5.8,14.4c-1.4,2.7-3.3,5.2-4.9,7.8c-4.8,7.5-11,13.7-18,19.1c-2.5,1.9-5.3,3.6-7.7,5.7
				c-2.8,2.7-6,4.8-9.5,6.5c-1.6,0.8-3.2,1.7-4.7,2.7c-2.5,1.6-3.7,3.6-3,6.8c0.8,4.2,1.3,8.5,1.7,12.8c0,0.8,0.1,1.6,0.4,2.4
				c-0.1,2.1,1.4,3.9,1.5,6c-0.3,0.5-0.5,0.9-0.8,1.4c-1.4,1.9-3.2,2.8-5.5,1.5c-1.5-4.2-0.5-8.7-1.4-13c-0.5-2.7-0.6-5.6-1-8.4
				c-0.5-3.5-1.9-4.5-5.1-3.3c-7,2.5-14.1,4.7-21.4,6.3c-4.6,1-5.4,5-5.5,9c-1.2,2.5-1.1,5.1-0.4,7.7c-0.4,1.5-1.1,2.8-2.4,3.7
				c-0.9,0-1.7,0-2.6,0c-1.9,0.2-2.7-1-3.1-2.5c0.6-3.2,2.1-6.2,2.9-9.4c1.3-4.8-0.3-6.6-5.2-6.1c-8.1,0.9-16.2,1.1-24.2-0.6
				c-4.8-1-8.8,0.2-12.1,3.8c-1.4,0.1-1.9-0.9-2.3-2c-0.2-3.1-2-4.8-4.9-5.7c-8.8-2.5-17.4-5.4-25.6-9.5c-3.2-1.6-3.8-1.1-6.2,3.9
				c-2.8,5.1-2.1,10.2-0.2,15.3c1,2.6,2.2,5.2,2.5,8c-1.3,2.7-2.2,2.9-3.8,0.7c-0.8-1-1-2.5-2.5-3c-0.8-2.3-1.6-4.5-1.6-7.1
				c0.1-2.6-1.7-3.7-4-3.9c-1.5-0.6-3.3,0.4-4.7-1c-0.7-1.5,0.6-2.2,1.4-3.1c2.3-2.8,4.8-5.4,7.2-8.1c3.7-4.2,3.3-7.3-1.4-10.3
				c-6-3.9-11.2-8.7-16.5-13.5c-3.1-2.9-4.1-2.7-6.9,0.4c-4.7,3.7-10.1,6.3-14.2,10.7c-1.4,2.4-1.5,4.8-1.1,7.5
				c0.4,2.5,1.5,10.5-0.8,12.2c-2.9-2.5-3-11.7-3.8-14.8c-0.3-1.2-0.1-2.5-0.1-3.7c0.2-1.2,0.6-2.5-1.3-3c-1.2-0.3-2.7-0.9-2-2.8
				c2.3-1.7,5.2-2.1,7.8-3.3c3.7-1.7,7.3-3.5,10.2-6.5c2.8-3.1,3.2-5.4,0.8-8.8c-3.9-5.4-7.3-11.1-9.9-17.3
				c-0.6-1.5-1.8-2.9-3.5-2.8c-5.5,0.2-10.9-1.4-16.5-0.3c-2.7,0.5-5.1,1.8-7.7,2.4c-1.6-0.1-2.6-1-3.1-2.5c-0.4-2.7-2.9-3.1-4.7-4
				c-1.9-0.8-3.8-1.6-5.4-2.9c-0.9-2.2,0.3-3.2,2.2-3.9c1.6-0.1,3.1,0.6,4.5,1.2c6.4,2.7,13.2,3.8,20.1,4.5c2.7,0.3,5.4-0.6,8.1-0.6
				C91.3,173.2,92.8,172.9,94.4,172.6L94.4,172.6z"/>
			<path class="sunflower17" d="M267.5,260.1c-1.7-1.7-2.4-3.7-2-6c2.4-0.6,4.3,1,6.2,1.8c3.1,1.3,6.3,2.2,9.6,2.6c1.5,0.2,2.9,0.5,4.3,0.8
				c7.7,1.4,10.8-1,10.7-8.7c-0.1-7.4-1.6-14.6-5.5-21.1c-1.9-3.2-4.2-6.2-8.4-6.8c-0.6-0.1-1.1-0.4-1.3-0.9
				c2.5-1.8,4.9-3.5,7.4-5.3c2.7,3.6,4.9,7.5,7.6,11.1c0.7,1,1.4,2.1,2.2,3c5.3,3.9,11.2,2.7,17.1,2.3c6.2-0.8,8.7-4.2,7.4-10.3
				c-2.1-9.5-6.4-17.8-14.7-23.4c-0.6-0.4-1.4-0.8-1.8-1.5c1.6-2.6,3.2-5.1,4.8-7.7c1.5,0.2,1.4,1.6,1.8,2.6
				c3.2,9.1,8.5,11.7,17.6,8.8c2.4-0.8,4.6-1.9,6.9-2.9c1.3-0.4,2.6-0.8,4-0.6c1.8,0.9,2.8,2.4,2.9,4.5c-2.9,4.5-7.4,6.5-12.5,7.5
				c-4.4,0.9-5.9,4-3.5,7.8c2.7,4.2,4.1,8.1,1.1,12.9c-3.5,5.7-7.3,10.2-14.7,9.8c-1.9-0.1-3.8,0-5.8,0c-3.5,0.1-4.9,1.6-4,4.9
				c0.9,3.3,0.1,6.2-0.7,9.2c-1.8,7.1-5.8,9.6-13.8,10.1c-4.7,0.3-9.4,0.6-14.1-0.4C273.1,263.6,270.3,261.9,267.5,260.1
				L267.5,260.1z"/>
			<path class="sunflower18" d="M136.6,258.1c2.5-1.3,2.3,1.2,2.9,2.3c1,1.6,1.7,2.2,3.1,0.5c1.4-0.3,2.1,0.7,2.7,1.6
				c2,2.9,4.6,4.1,8.1,3.6c9-0.6,15-5.7,19.8-12.8c1.3-1.9,1.9-4.6,4.7-5.4c0.4,0.8,0.7,1.7,1.6,2.2c1,1.8,0.8,4,2.3,5.6
				c4.1,6.7,9.1,12.5,16.3,16c5.1,2.1,9.3,0.3,13.1-2.9c1.6-1.3,2.9-2.9,4.4-4.2c0.9-0.8,1.6-2,3.1-1.6c0.9,0.7,1.8,1.4,2.8,2.1
				c-3.1,9-10.2,12.6-18.9,13.5c-4.3,0.4-8-1.7-11.2-4.5c-4.6-4-8.1-9.1-12.5-13.3c-3.4-3.3-4.3-3.6-7.2,0.2
				c-3.5,4.5-7.6,8.2-12.6,10.9c-3.9,2.1-7.9,2.6-12,1.2c-3.5-1.2-4.7-4.7-6.6-7.4C138.7,263.3,137.4,260.8,136.6,258.1L136.6,258.1
				z"/>
			<path class="sunflower19" d="M230.8,31.2c0.5,2.9-3.1,3.1-3.4,5.5c-0.5,0.4-1,0.4-1.5,0.1c-0.3-0.3-0.6-0.7-0.6-1.2
				c-1.8-12-9.6-20.2-17.9-28.1c-3.9-3.7-9.9-3.5-13.9,0c-7.5,6.7-11.1,15.4-12.9,25.2c-1,5.2-0.1,10.3-1,15.5
				c-1.4,0.5-1.6,2.5-3.2,2.7c-1.5-3.1-2.1-6.2-0.7-9.5c2.7-1.6,2.3-3.7,0.6-5.6c-1.3-1.5-2.3-3-2.1-5.1c2.2-6,4.6-11.9,7.6-17.6
				c2.5-4.8,6.6-8.3,10.7-11.5c4.5-3.5,15.1-1.3,19.1,2.8c5,5.2,10.3,10.3,13.8,16.7C227.5,24.4,229.1,27.8,230.8,31.2L230.8,31.2z"
				/>
			<path class="sunflower20" d="M224,265c0.2-1.5,1.1-2.5,2.1-3.5c1.7-0.5,2.7,0.8,3.9,1.6c4,2.7,7.7,5.8,12.8,6.4c1.5,0.4,3,0.8,4.6,1.1
				c5,0.8,9.2-0.2,11.7-5.1c0.5-1.1,1-2.3,2.4-2.6c2,0.5,3.5-0.8,5.2-1.4c1.6,9.3-3.4,12.3-13.8,14.8c-10.3,2.5-19-2.2-27.1-7.9
				C224.8,267.6,224.1,266.4,224,265L224,265z"/>
			<path class="sunflower21" d="M65,178.7c1,0.7,1.9,1.4,2.9,2.1c0.2,1.8-1.2,2.5-2.2,3.6c-3.6,4.3-7.5,8.4-9.1,14
				c-2.2,8,1.3,14.7,9.2,17.3c2.3,0.7,4.6,1.1,6.9,1.5c1.3,0.2,2.7,0.3,3.4,1.8c-0.9,2.2,0.7,3.7-1.1,4c-1.4,0.2-6.5-1.2-7.9-1.5
				c-12.6-2.9-19.7-12.4-14.8-25.3c1.5-3.9,3.5-7.6,5.5-11.3C59.4,181.9,62,180,65,178.7L65,178.7z"/>
			<path class="sunflower22" d="M92.9,236.5c0.9-2.5,1.7-5,0.9-7.8c-0.7-2.5-0.2-5.1,1.8-7.2c1.4,1.4,0.9,3.1,0.8,4.8
				c-0.5,6.8,0.5,13.2,4.3,19c1,1.6,2.3,3,3.8,4.3c2.6,2.3,5.3,1,8,0.3c3.6-0.4,6.8-1.9,10.1-3.4c1.2-0.5,2.3-1.5,3.7-0.6
				c1.7,0.1,3.3,0.5,4.8,1.3c-1.2-0.1-2.1,0.6-2.9,1.4c-4.5,4.1-10,6.2-15.8,7.8c-3,0.8-6.1,0.4-9-0.4c-0.9-0.2-2-0.4-2.6-1.4
				C97.2,248.9,91.9,244,92.9,236.5L92.9,236.5z"/>
			<path class="sunflower23" d="M57,168.4c-1.4,0.7-1.9,2-2.1,3.4c-5.3-3.2-10.7-6-15.5-9.9c-5.7-4.7-8.5-11.3-4.2-18.6
				c0.1,1.4,0.1,2.9,1.9,3.5c0.5,5.3,3.7,8.6,7.9,11.4c3.5,2.3,6.7,4.9,10,7.5C55.9,166.3,57.2,166.9,57,168.4L57,168.4z"/>
			<path class="sunflower24" d="M344.2,202.4c-0.9-1.4-1.8-2.8-2.7-4.1c-0.3-1.4,0.7-2.3,1.3-3.3c2.5-4.1,2.7-8.2,0-12.3
				c-1.6-2.5-3.1-4.9-5.2-7c-0.8-0.8-2-1.6-1.5-3.1c1.1-0.7,2.3-1.4,3.4-2c1,0.1,2.1-0.3,2.8,0.9c-0.8,2.1,0.8,3.3,1.8,4.7
				c4.8,6.7,6.1,13.8,3.7,21.7C347.1,200,345.9,201.3,344.2,202.4L344.2,202.4z"/>
			<path class="sunflower25" d="M67.1,221.5c1.7-1,3.5-1.6,5.5-1.4c1.3,0.1,2.4-0.3,3.4-1.2c3.6-1.4,7.1-2.5,10.9-0.7
				c0.5,1.1,1.6,1.6,2.6,1.8c3.1,0.7,2.2,2,0.7,3.5c-3-1.3-6.1-0.6-9.2-0.3C76.2,223.7,72.3,223.6,67.1,221.5L67.1,221.5z"/>
			<path class="sunflower26" d="M304.1,125.7c0,1.6,0.1,3.2,0.8,4.7c1.9,5.5,0.5,11-0.2,16.4c-1.2,8.6-5.1,16-10.6,22.8
				c-16.9,20.8-38,35.7-63.4,44.3c-3.1,1.1-6.3,1.9-9.6,1.6c-3.2-0.3-5.9,1.5-8.9,2.1c-13.6,0.2-27.2,0.4-40.8,0
				c-13.1-3.6-26.4-7-38.5-13.5c-3.1-1.7-6.1-3.4-8.8-5.6c-6.6-5.4-13.4-10.6-20.1-15.9c-1.2-0.9-2.1-2-2.8-3.3
				c-1.2-2.7-2.4-5.4-3.6-8.1c0.5-6.3-0.5-12.7,0.7-19.1c0.8-4.3,2.2-8.4,4.2-12.2c1.5-0.9,3-1.7,3.7-3.3c3.9-8.5,9.7-15.8,16-22.6
				c8-8.7,16.2-17.3,26.2-23.9c16.3-10.6,34.1-16.8,53.6-18.4c18.3-1.5,35.7,1.9,52.6,8.6c3.6,1.5,6.7,4.2,10.8,4.6
				c8.9,4.8,15.6,12.2,22.2,19.6C293.6,111.1,298.6,118.6,304.1,125.7L304.1,125.7z"/>
			<path class="sunflower27" d="M57,168.4c-5.2-4-10.5-8-15.6-12c-3.1-2.4-5.4-5.3-4.3-9.7c5.4-9.8,14.2-15.5,24.3-19.5
				c7.5-2.9,14.7-1.2,21.5,2.4c3.9,2.1,7.6,4.5,11.4,6.8c0.4,0.9,0.3,1.8,0,2.6c-2.8,9.9-3.3,20-3.1,30.2c0,1.6,0.2,3.2-1,4.5
				C78.5,176.1,67.7,172.4,57,168.4L57,168.4z"/>
			<path class="sunflower27" d="M179.8,48.3c-1.5-8.6-0.2-17,2.6-25.1c2.2-6.5,5.7-12.2,11-16.6c4.2-3.5,10.8-3.4,14.8,0.3
				c4.4,4.1,8.3,8.5,11.9,13.3c3.6,4.8,5.6,10.4,6.2,16.4c0.8,6.5-4.6,16.2-10.9,19.3c-8.1,3.9-16.7,5.6-25.7,4.7
				c-2.2-0.2-4.5-0.5-6.3-2.2C182.2,55.1,181,51.7,179.8,48.3L179.8,48.3z"/>
			<path class="sunflower27" d="M94.3,131.7c-8.1-3.4-15.7-7.7-21.7-14.4c-6.3-7.1-9.5-15.5-10.2-24.9c-0.4-5.6,2.1-9.6,7.3-11.5
				c8.8-3.2,17.7-4.9,26.4,0.6c0.7,0.4,1.4,0.8,1.9,1.4c5.4,5.9,11.4,11.1,17.9,15.8c0,2.5-1.9,4-3.2,5.7c-5.4,7.6-11,15-14.3,23.9
				C97.7,130.2,96.5,131.6,94.3,131.7L94.3,131.7z"/>
			<path class="sunflower27" d="M117.4,94.5C105.3,88,97,78.5,94.5,64.7c-0.8-4.4-1.1-8.9-0.2-13.4c0.8-3.6,4.5-7.4,8.1-7.7
				c13.3-1.3,25.2,1.8,34.6,11.8c4.6,4.9,7.5,10.8,9,17.4c-8.3,7.6-16.7,15.1-26.4,21C118.9,94.2,118.2,94.5,117.4,94.5L117.4,94.5z
				"/>
			<path class="sunflower27" d="M229.6,61.8c-0.2-11.2,1.9-21.7,10.4-29.8c5-4.7,11-7.9,17.8-9.4c2.8-0.6,5.4,0.8,7.1,3
				c1.6,2.1,3.2,4.3,4,6.9c1.5,7.3,1.4,14.6,0,21.9c-1.9,9.4-8.1,13.9-17.6,12.9c-5.9-0.6-11.6-1.8-17.3-3.3
				C232.4,63.7,230.7,63.2,229.6,61.8L229.6,61.8z"/>
			<path class="sunflower27" d="M175.9,41.5c0.2,3.2,0.4,6.3,0.7,9.5c-0.4,2,0.6,3.6,1.1,5.4c-1.5,3.6-4.5,5.6-7.7,7.2
				c-5.9,2.9-12.3,4.5-18.4,6.7c-0.6,0.2-1.1,0.1-1.6-0.3c-1.8-5.4-5.1-10.1-7.4-15.3c-4-9.2-1.9-17.7,2.9-25.8
				c2.2-3.8,6.7-4.9,11.3-3.2C165.1,28.6,171.9,33.4,175.9,41.5L175.9,41.5z"/>
			<path class="sunflower28" d="M265.5,84.9c-1.9,0.9-3.5,0.3-5.3-0.7C251,79,241,76.1,230.7,74.1c-7-1.3-14-2.3-21.1-2
				c-25.3,0.8-48.4,8.1-68.1,24.5c-12.1,10-22.8,21.4-31.4,34.7c-1.2,1.8-2.1,3.7-2.9,5.7c-0.8,2.1-2.2,3.4-4.6,3
				c7-17.6,17.4-32.8,31.5-45.4c14.6-13.1,31.5-22.2,50.8-26.6c10.3-2.3,20.7-2.9,31.1-1.9C234.2,67.7,251,73.3,265.5,84.9
				L265.5,84.9z"/>
			<path class="sunflower27" d="M272.2,74.7c4-11.8,11.6-19.9,24-22.7c3.2-0.7,6.6-1.3,10-1c2.9,0.3,5.2,1.3,5.5,4.7
				c1.3,8.1,0.1,15.9-3.5,23.3c-5.5,11-16.7,14.1-27,7.6c-3-1.9-5.5-4.4-7.6-7.2C272.6,78,271.6,76.6,272.2,74.7L272.2,74.7z"/>
			<path class="sunflower27" d="M305.4,95.8c4.9-6.8,11.9-9.6,19.9-10.1c5.2-0.3,10.3,0.1,15.2,2c1.1,0.4,2.4,0.6,2.9,2
				c0.3,3.8-1.4,7-2.8,10.3c-2.8,6.6-6.7,12.5-11.8,17.6c-5.3,5.2-9.9,5.1-15.3,0.1c-5.8-5.4-8-12.3-8.6-20
				C304.8,96.9,305,96.3,305.4,95.8L305.4,95.8z"/>
			<path class="sunflower29" d="M323.8,133.8c0.5-0.6,1-1.3,1.5-1.9c9.2-5.5,18.1-4,26.7,1.3c4.8,3,8.2,7.1,9.2,12.9
				c-6.1,7-13.3,12.2-22.5,14.2c-1.8,0.4-3.6,0.4-5.4,0.4c-6.5-0.2-10.1-3.6-10.3-10.1c-0.1-4.4,0-8.8,0-13.2
				C322.9,136.1,323,134.8,323.8,133.8L323.8,133.8z"/>
			<path class="sunflower30" d="M305.4,95.8c0.8,8.2,2.5,16,9.2,21.8c4.4,3.9,8.9,4.1,13.1-0.1c7.4-7.4,12.4-16.2,15.2-26.3
				c0.1-0.5,0.4-1,0.6-1.5c3.9,8.9,1.4,17.1-3.4,24.8c-3.5,5.6-8.9,9.4-14.1,13.3c-0.8,0.6-1.7,1.1-2.2,2c-1.9,0.9-3.7,2.1-5.7,2.6
				c-4.4,1.1-7.5-1.1-9.9-4.6c-0.7-1.1-1.4-2.3-2.1-3.4c-2.1-5.4-5.5-10.2-8.3-15.3c-1.6-2.9-1.4-5.4,0.6-7.7
				C300.5,99.2,302.7,97.1,305.4,95.8L305.4,95.8z"/>
			<path class="sunflower31" d="M323.8,133.8c0,4.8,0.3,9.7,0,14.5c-0.6,11.2,6.5,12.3,14.1,11.1c8-1.2,14.1-6,20-11c1-0.9,1.7-2.2,3.2-2.3
				c-1.2,8.3-6.8,13-13.9,16.3c-3,1.4-6.1,2.8-9.1,4.2c-3.5,0-7,0-10.5-0.1c-3.4,0-6.3-1.2-7.5-4.7c-2.1-6.2-4.1-12.5-5.7-18.9
				C313.5,138.7,317.9,134.7,323.8,133.8L323.8,133.8z"/>
			<path class="sunflower32" d="M229.6,61.8c6.6,2.1,13.4,3.6,20.2,4.5c11.3,1.4,16.7-3,18.4-13.1c1.2-6.8,0.3-13.7,0.7-20.5
				c7,14.9,6.6,29.4-2.3,43.5c-1.5,2.3-3,2.5-5,1.4c-9.5-5.5-19.7-9.4-30-12.8C229.9,64.3,229.2,63.5,229.6,61.8z"/>
			<path class="sunflower33" d="M272.2,74.7c2.8,6.7,7.8,11.3,14.6,13.5c9.6,3.1,18.3-2.3,22.1-13c2.2-6.3,2.7-12.9,2.8-19.5
				c3.3,12,1,23.1-5.8,33.2c-3,4.4-6.8,8-11.6,10.6c-2.8,1.5-5.2,1.3-7.3-0.8c-4.9-5-10.2-9.5-15.5-14.1
				C268.3,81.7,268.5,79.1,272.2,74.7L272.2,74.7z"/>
			<path class="sunflower34" d="M183.3,58.4c10.7,3.1,20.9,1.5,30.9-2.8c6.8-3,9.2-9.2,11.1-15.7c0.3-1.1,0.6-2.2,0.8-3.3
				c0.4,0,0.8,0.1,1.2,0.1c0,5.4,0.1,10.8,0,16.3c-0.1,5.9-3.1,9-9,8.9c-9.8-0.1-19.6,0.2-29.3,1.3
				C184.9,63.7,184.2,62.8,183.3,58.4L183.3,58.4z"/>
			<path class="sunflower35" d="M94.3,131.7c1.9-1.2,3.1-2.7,3.9-4.8c4-10.6,11.3-19.1,17.7-28.2c5,2.2,5.4,4,2.1,8.4
				c-5.1,6.8-9.9,13.9-14.3,21.2C101,133,98.7,133.8,94.3,131.7z"/>
			<path class="sunflower31" d="M117.4,94.5c9.7-6.2,18.3-13.8,27-21.1c0.4-0.3,1-0.4,1.5-0.6c2.1,2.7,2,5.2-0.5,7.7
				c-5.8,5.8-12.1,11.1-18.4,16.3c-2.2,1.9-4.3,2-6.6,0.3C119.4,96.2,118.4,95.3,117.4,94.5L117.4,94.5z"/>
			<path class="sunflower32" d="M150,70.1c6.5-2.3,12.9-4.6,19.3-7c3.5-1.3,5.7-4.3,8.4-6.7c0.4,0.6,1,1.2,1.3,1.9c2.1,3.8,1.2,6.7-2.8,8.3
				c-2,0.8-4,1.3-6,2c-4.5,1.4-8.7,3.5-12.8,5.8C152.2,77.4,150.1,76.1,150,70.1z"/>
			<path class="sunflower36" d="M90.2,173.8c0-11.1-0.3-22.3,2.7-33.2c0.4-1.4,0.9-2.8,1.4-4.1c4.3,0.2,5,1.3,3.4,5.5
				c-3.7,9.9-5,20.1-3.4,30.6C93.6,175.2,91.6,173.4,90.2,173.8L90.2,173.8z"/>
			<path class="sunflower37" d="M213.1,216.8c1.9-1.1,3.8-2.2,6-2.1c8.7,0.6,16.3-3.2,23.9-6.6c17.5-7.6,32.5-18.9,45.3-33
				c7.5-8.2,14.2-17,15.6-28.5c0.7-5.4,1.1-10.8,1-16.2c4.8,6.5,7.5,13.9,8.7,21.7c3.3,21.3-4.1,38.9-18.9,53.9
				c-12.7,12.9-28.1,21.7-44.9,28.2c-11.8,4.5-24.1,7.2-36.7,8.3c-4.1,0.3-8.1,1.4-12.3,0.6c-1-0.2-2-0.5-2.7-1.3
				c4.3-2.9,4-6.6,2.2-10.8c-0.8-1.9-1-3.9-1.3-5.9c-0.5-3.6,0.7-5.5,4.2-6.6C206.5,217.6,209.9,217.8,213.1,216.8L213.1,216.8z"/>
			<path class="sunflower38" d="M86.9,218.2c-3.6,0.2-7.3,0.5-10.9,0.7c-2.5-1-5.2-1-7.9-1.6c-13.5-2.7-16.4-15.3-9.1-26
				c2.6-3.8,5.8-7.2,8.9-10.6c5.1-2.9,10.4-4.1,16.4-2.9c2.4,0.5,5,0.3,7.4,0.1c2.4-0.1,3.8,0.9,4.7,3c2.7,6.2,5.8,12,9.9,17.5
				c3.1,4.2,2.7,6.7-0.8,10.3C100.3,213.9,93.5,215.8,86.9,218.2L86.9,218.2z"/>
			<path class="sunflower39" d="M281,222c4.6-0.3,7.5,2.4,9.7,6c4.9,8.1,7,16.7,6,26.2c-0.5,5.2-4.5,7.5-9.9,6.5c-2-0.4-3.9-0.8-5.9-1.3
				c-3.7-2.4-6.9-5.3-10.7-7.6c-2.1-1.3-3.7-2.8-5.5,0.2c-0.5-4.3-0.7-8.7-1.7-12.9c-1-3.8,0.3-5.8,3.4-7.7
				C271.5,228.5,277,226.3,281,222L281,222z"/>
			<path class="sunflower29" d="M112.6,250.5c-6.8,2.9-8.8,0.6-12.2-4.2c-4.4-6.1-5.7-13.1-4.8-20.6c0.2-1.4,0-2.9,0-4.4
				c4.2-4.3,9.2-7.2,14.3-10.2c1.1-0.4,1.8,0.3,2.4,0.9c4.8,5.1,10.5,9.3,15.2,14.5c2.7,2.9,3.3,5.5,0.8,8.5
				C123.7,240.9,118.7,246.3,112.6,250.5L112.6,250.5z"/>
			<path class="sunflower40" d="M261.5,262.9c-4.2,8.6-7,10.9-19.1,7.4c0.5-1.7-0.2-2.6-1.7-3.4c-5.3-2.7-8.9-7.5-13.5-11.1
				c-0.6-0.4-0.8-1.1-1-1.7c-0.4-7.2,1.3-9.5,8.6-11c6.1-1.3,12-3.3,17.9-5.4c5.2-1.9,6.8-0.9,7.3,4.4
				C260.5,249,261.7,255.9,261.5,262.9L261.5,262.9z"/>
			<path class="sunflower41" d="M124.2,197.7c12,8.7,25.8,13,39.9,17c2.1,0.6,4.2,1.3,6.3,2c-0.2,0.8-0.8,1.4-1.4,1.8
				c-2.4,1.8-2.8,4.1-1.8,6.9c1.1,3.2,1,6.4-1.5,9c-4.8-0.4-9-2.5-13.3-4.4c-14.5-6.2-26.5-15.9-37.1-27.4c-1-1.1-1.7-2.3-2.6-3.5
				c2.3-3,5.7-2.2,8.7-2.2C122.3,196.8,123.3,197.3,124.2,197.7L124.2,197.7z"/>
			<path class="sunflower42" d="M165.6,234.4c1.1-3.4,1.9-6.6,0.2-10.3c-1.4-3,0.3-5.1,4.6-7.4c14.3,0,28.5,0.1,42.8,0.1
				c-2.6,2.2-5.9,1.7-8.9,2.5c-4.2,1.2-4.8,2.1-4.1,6.4c0.5,2.8,1.3,5.4,2.1,8.1c1.5,5.3,1.1,6-4,8.1c-10.6,0.1-20.9-1.7-30.6-6.2
				C166.9,235.4,166.3,234.8,165.6,234.4L165.6,234.4z"/>
			<path class="sunflower43" d="M297.3,231c-2.9-4.8-7.4-8.6-8.9-14.3c6.8-5.5,13-11.5,17.8-18.9c4.5,1.3,7.3,4.6,9.8,8.1
				c4.2,5.9,7.6,12.2,7.7,19.7c0.1,5.2-2.9,8-8.1,8c-4.7-1-9.2-3-14.1-2.3C300.1,231.6,298.7,231.9,297.3,231L297.3,231z"/>
			<path class="sunflower39" d="M181.2,256.1c-2-1.6-2-3.8-1.8-6.1c2.3-5.1,6.8-5.7,11.4-4.7c7.2,1.6,14.3,1.2,21.5,1.2
				c1.7,0,3.3-0.6,5-0.6c4.7-0.1,6.4,2,5,6.5c-1.1,3.5-2.5,6.9-3.8,10.4c-3.4,2.3-5.7,6-9.2,8.2c-3.8,2.5-7.7,3.2-11.9,1.1
				c-0.8-1.1-0.6-2.3-0.6-3.5c0.2-6.3-4.2-11.2-10.5-11.7C184.6,256.9,182.8,257.2,181.2,256.1L181.2,256.1z"/>
			<path class="sunflower44" d="M336.1,172.5c2.3,2.9,4.9,5.5,7,8.6c4.2,6.2,2.8,11.8-1.6,17.1c-1.3,0.3-2.6,0.6-4,0.9
				c-5.1,1.6-9.8,0.7-14.3-1.8c-2.4-1.3-3.5-3.3-2.5-5.9c2.1-5.3,3-10.9,4.3-16.4c0.4-1.7,0.8-3.3,2.3-4.4
				C330.5,169.8,333.2,171.8,336.1,172.5L336.1,172.5z"/>
			<path class="sunflower40" d="M177.8,247.9c-2.5,3.4-4.8,6.9-7.4,10.2c-4.3,5.5-10,8.3-17,8.7c-0.9-1.5,0.2-2.6,0.9-3.7
				c1.6-2.5,3.1-5,4.5-7.5c2.6-4.9,2.4-5.8-2.3-8.6c-4.6-2.8-9.4-5.3-13.9-8.4c-0.9-0.6-2-1.1-2.6-2.1c0.4-0.9,0.8-1.9,1.2-2.8
				c1-2.5,2.8-3.1,5.1-1.8c8.5,4.6,17.6,7.4,26.9,10.1C175.9,242.8,178.4,244.2,177.8,247.9L177.8,247.9z"/>
			<path class="sunflower45" d="M140,236.4c6.7,3.9,13.4,7.8,19.9,11.8c1.8,1.1,2.1,3.1,1,5.1c-2,3.4-3.9,6.8-5.9,10.2
				c-0.6,1.1-1.4,2-1.6,3.3c-4,0.8-6.9-0.6-8.9-4.2c-0.4-0.7-1.3-1.2-1.9-1.8c-1.8-5.7-5-11-4.8-17.2
				C137.8,241,138.5,238.6,140,236.4L140,236.4z"/>
			<path class="sunflower46" d="M112.6,250.5c4.4-4.4,8.7-8.8,13.1-13.2c4.4-4.4,4.4-7.1,0-11.3c-5.2-5-10.5-9.8-15.8-14.8
				c2-3.9,3.6-4.5,6.7-1.6c6.1,5.6,12.5,10.9,19.2,15.8c3.8,2.8,3.4,6.4-0.5,10.6c-3,3.3-6,6.7-9,10c-3.9,1.3-7.5,3.7-11.6,4.5
				C113.9,250.6,113.2,250.5,112.6,250.5L112.6,250.5z"/>
			<path class="sunflower46" d="M327.3,170.6c-2.6,7-2.7,14.7-6,21.6c-0.9,1.9,0.4,3.2,2.2,4.3c4.4,2.6,9.2,2.4,14,2.6
				c-3.9,2.8-8.5,4.1-13.1,4.5c-5,0.5-9.9-3.6-12-9.5c-0.5-1.3-0.9-2.7-1.4-4.1c2.2-4.6,4.7-9.1,5.7-14.3
				C317.6,170.9,320.6,169.8,327.3,170.6z"/>
			<path class="sunflower47" d="M124.2,197.7c-3.9,0-7.9-0.3-11.6,1.4c-5.6-5.5-9.8-11.9-11.4-19.7C108.9,185.5,116.5,191.6,124.2,197.7
				L124.2,197.7z"/>
			<path class="sunflower48" d="M226.2,254.1c5.9,4.2,10.3,10.2,17.1,13.5c2.6,1.2-0.5,1.8-0.9,2.7c-5.4-0.5-9.3-4.1-13.5-6.9
				c-0.9-0.6-1.8-1.2-2.8-1.8C224.7,259.1,224,256.6,226.2,254.1L226.2,254.1z"/>
			<path class="sunflower49" d="M264.9,252c1.2-4.1,1.2-3.9,5.2-1.2c3.9,2.6,8.1,4.7,10.9,8.6c-5.7-0.2-10.5-3.1-15.6-5.3
				C264.7,253.6,264.7,252.8,264.9,252L264.9,252z"/>
			<path class="sunflower50" d="M297.3,231c5-1.1,10-1,14.9,0.7c1.3,0.4,2.5,0.9,3.5,1.9C309.3,234.7,302.9,235.9,297.3,231L297.3,231z"/>
			<path class="sunflower51" d="M181.2,256.1c3,0.1,6-0.4,9,0.8c5.4,2.1,8.3,7.2,7.4,13.1c-0.1,0.8-0.1,1.6-0.1,2.4
				C190.3,268.6,185,263.1,181.2,256.1L181.2,256.1z"/>
			<path class="sunflower52" d="M45.5,146.8c-2,0.2-2.4-0.7-1.4-2.1c2.1-2.8,4.6-5.2,7.4-7.4c1.1-0.8,2.5-1.3,3.7,0
				c1.2,1.4,0.8,2.7-0.4,3.8C52,143.7,49.3,146.2,45.5,146.8L45.5,146.8z"/>
			<path class="sunflower53" d="M208.1,14c-0.1,0.1-0.2,0.2-0.3,0.2c-8.7-1.2-8.9-1.1-13.7,6.9c-1.3,2.1-2.6,4.3-4.8,5.6
				c-1.4,0.8-2.2,0.4-2-1.2c1.2-6.7,3.5-12.8,9.8-16.5C201.1,6.7,205.9,9,208.1,14L208.1,14z"/>
			<path class="sunflower53" d="M70.7,101.2c-4.6-3.5-6.1-7.6-4.8-11.1c1.7-4.5,8.1-6.4,13-5.7c1.8,0.2,3.5,0.5,5.4,0.6
				c0,1.5-1.2,1.8-2.2,2.3c-1.6,0.8-3.2,1.6-5,2.1C71.4,91.1,69.7,95.2,70.7,101.2z"/>
			<path class="sunflower53" d="M101.5,65.8c-6.2-6.7-4.7-15.5,2.9-18.3c5.2-1.9,9.9,0.9,14.5,2.9c0.7,0.3,0.7,1.1,0.4,1.8
				c-0.7,1.2-1.8,1.9-3.1,1.5c-2-0.5-4-0.7-6-0.7c-4.5,0-6.8,2.1-7.6,6.5C102.1,61.4,101.8,63.4,101.5,65.8L101.5,65.8z"/>
			<path class="sunflower54" d="M240.4,40c2.6-4,5.6-7,9.2-9.5c5.1-3.5,8.7-2.8,13,2.9C254,31.9,248.4,38.7,240.4,40L240.4,40z"/>
			<path class="sunflower55" d="M160.4,33c-5.5-0.9-7.2,0-9.8,5.1c-0.9,1.7-1.7,3.4-2.7,5c-0.4,0.7-1.4,1.6-1.9,0.1
				c-1.9-5.5,0.9-11.9,4.5-13.6C154.2,28,157.3,28.8,160.4,33L160.4,33z"/>
			<path class="sunflower56" d="M297.7,55.8c1,0.2,2.8-0.6,3.2,1.3c0.4,1.6-1.4,1.8-2.2,2.6c-2.4,2.4-5.6,2.8-8.6,3.6
				c-0.8,0.2-2,0.5-2.5-0.3c-0.7-1,0.5-1.6,1.1-2.2C291.1,58,293.6,55.5,297.7,55.8L297.7,55.8z"/>
			<path class="sunflower57" d="M319.5,90.2c3.4-3.1,7-1.5,10.8-0.9C325.6,92.5,322.9,92.7,319.5,90.2z"/>
			<path class="sunflower58" d="M70.7,186.3c-1.4,6.1-4.6,10.3-9.6,13.3C59.7,195.3,63.9,189.4,70.7,186.3z"/>
			<path class="sunflower59" d="M101.1,230.6c-0.2,0.8,0.7,2.4-0.7,2.7c-1.3,0.2-1.4-1.4-2-2.4c-1-1.7-0.9-3.6-0.4-5.5
				c0.1-0.5,0.7-0.4,1.1-0.1C100.7,226.6,101.3,228.4,101.1,230.6L101.1,230.6z"/>
		</g>
		<g id="mouth">
			<path class="sunflower60" d="M130.8,180.7c0-3,1-5.1,2.9-6.9c0.6-0.6,1.4-0.9,2.3-1c1.3-0.1,2.2,0.5,2.4,1.8c0.1,0.4,0.1,0.8,0.1,1.1
				c0.1,1.6,0.7,2.4,2.4,2.4c4.4,0.1,8.6,1,12.8,2c3.8,0.9,7.6,2,11.5,2.7c2.5,0.4,5,0.8,7.5,0.7c4.2-0.1,8.3,0.3,12.4,1
				c3.6,0.6,7.2,1,10.8,1.2c4.6,0.4,9.2,0.6,13.9,0.4c3.8-0.2,7.6-0.5,11.2-1.6c3.2-1,6.6-1.4,10-1.7c5-0.4,10-0.6,15-1.7
				c4.3-0.9,8.6-2.1,12.9-3.1c6.4-1.6,12.8-3.5,19-5.9c2.4-0.9,4.7-1.8,7-2.9c0.6-0.2,0.5-0.5,0.2-0.9c-0.3-0.5-0.6-0.9-1-1.4
				c-0.3-0.4-0.5-0.8-0.5-1.4c-0.1-1.1,0.7-1.9,1.8-1.7c1.6,0.2,2.7,1.2,3.5,2.5c1.6,2.4,2.3,5.1,2.1,8c-0.1,1.2-1,2.2-2,2.2
				c-1.4-0.1-2.7-1.5-2.5-2.7c0-0.3,0-0.5-0.2-0.7c-0.2-0.3-0.4-0.5-0.8,0c-2.3,3.2-5.5,5.2-9.2,6.4c-4.2,1.4-8.5,2.6-12.7,4
				s-8.4,2.9-12.4,4.7c-3.5,1.5-6.8,3.4-10,5.3c-3.3,2-6.9,3.3-10.6,4.3c-3,0.8-5.9,1.8-8.9,2.8c-4.6,1.5-9.4,1.7-14.2,1.1
				c-6.4-0.8-12.4-3-18.3-5.6c-4.3-1.9-8.5-4.1-13.1-5.6c-4.3-1.4-8.7-2.5-13.1-3.4c-2.8-0.5-5.6-1-8.4-1.5c-3.2-0.5-6.4-1-9.6-1.8
				c-1.7-0.4-3.3-1.1-5-1.6c-2.3-0.7-3.8-0.1-5.3,1.8c-0.3,0.4-0.6,0.9-1,1.3c-0.7,0.7-1.3,0.6-1.8-0.2
				C131.2,183.8,130.8,182.1,130.8,180.7L130.8,180.7z M224.5,195.2c-7.6-1.7-14.9-1.6-22.2,0.4c0.4,0.4,0.8,0.3,1.2,0.3
				c3.1,0.7,6.3,1.2,9.5,1.4c2,0.1,3.9,0,5.9-0.4C220.7,196.6,222.5,196.1,224.5,195.2L224.5,195.2z"/>
			<path class="sunflower61" d="M224.5,195.2c-1.9,0.9-3.7,1.5-5.6,1.7c-1.9,0.3-3.9,0.5-5.9,0.4c-3.2-0.2-6.4-0.7-9.5-1.4
				c-0.4-0.1-0.8,0-1.2-0.3C209.6,193.6,216.9,193.4,224.5,195.2L224.5,195.2z"/>
		</g>
		<g id="eye">
			<path class="sunflower62" d="M187.1,138.8c0,5.6-1.3,10.6-3.5,15.3c-0.5,1.2-1.1,2.3-1.9,3.3c-2.1,2.9-5,3.6-8.2,2
				c-3.3-1.6-5.7-4.2-7.4-7.3c-2.4-4.3-3.8-8.9-4.6-13.7c-0.8-4.4-0.9-8.8-0.5-13.2c0.4-3.6,1.2-7,2.9-10.2c1.1-1.9,2.5-3.6,4.4-4.8
				c3-1.7,6.5-1.2,9.3,1.3c1.9,1.7,3.3,3.8,4.6,6c2.1,3.8,3.3,7.9,4,12.1C186.8,132.9,186.9,136,187.1,138.8L187.1,138.8z
				 M165.9,122.8c0,0.3,0,0.6,0,0.9c0.1,1.8,0.3,3.5,1.5,4.9c1.9,2.3,6.5,2,8.2-0.7c1.8-2.8,2.2-6,1.5-9.3c-0.3-1.3-0.7-2.5-1.7-3.4
				c-1.9-1.8-6.4-0.9-7.9,1.5C166.3,118.6,166,120.7,165.9,122.8L165.9,122.8z"/>
			<path class="sunflower63" d="M271.4,138.4c-0.2,1.8,0.1,3.8-0.2,5.8c-0.5,2.6-1.7,4.9-3,7.2c-0.8,1.4-1.7,2.8-2.9,4
				c-1.6,1.6-3.4,2.1-5.6,1.4c-2-0.7-3.9-1.7-5.4-3.2c-1.3-1.2-2.2-2.9-3.1-4.5c-2.5-4.1-4.1-8.5-4.9-13.2
				c-0.7-3.9-0.8-7.9-0.3-11.9c0.3-2.8,0.8-5.6,1.6-8.3c0.8-2.7,1.9-5.2,4.4-6.8c3.1-2,7.4-1.6,10.1,1c3.2,3.1,5.3,6.8,6.5,11
				c1.5,4.9,2.4,10,2.8,15.1C271.5,136.8,271.4,137.5,271.4,138.4L271.4,138.4z M261.7,119c0-0.7,0-1.4-0.2-2
				c-0.5-2.4-2-3.8-4.3-4.1c-2.6-0.4-4.5,0.6-5.6,2.8c-1.2,2.3-1.5,4.8-1.1,7.4c0.2,1.2,0.4,2.4,1.3,3.4c2.3,2.6,6.8,1.9,8.6-1.3
				C261.3,123.1,261.6,121.1,261.7,119L261.7,119z"/>
			<path class="sunflower64" d="M165.9,122.8c0.1-2.1,0.4-4.2,1.6-6c1.6-2.4,6.1-3.3,7.9-1.5c1,0.9,1.4,2.1,1.7,3.4
				c0.7,3.3,0.3,6.4-1.5,9.3c-1.7,2.7-6.3,3.1-8.2,0.7c-1.2-1.4-1.4-3.1-1.5-4.9C165.9,123.4,165.9,123.1,165.9,122.8L165.9,122.8z"
				/>
			<path class="sunflower64" d="M261.7,119c-0.1,2.1-0.4,4.2-1.4,6c-1.7,3.2-6.3,3.9-8.6,1.3c-0.8-1-1.1-2.2-1.3-3.4
				c-0.4-2.6-0.1-5.1,1.1-7.4c1.1-2.2,3.1-3.1,5.6-2.8c2.3,0.3,3.8,1.7,4.3,4.1C261.6,117.6,261.7,118.3,261.7,119L261.7,119z"/>
		</g>
	</g>
</g>
</svg>
