<?xml version="1.0" encoding="utf-8"?>
<!-- Generator: Adobe Illustrator 27.0.0, SVG Export Plug-In . SVG Version: 6.00 Build 0)  -->
<svg version="1.1" id="Layer_2_00000050634788616721145460000017225971000097368490_"
	 xmlns="http://www.w3.org/2000/svg" xmlns:xlink="http://www.w3.org/1999/xlink" x="0px" y="0px" viewBox="0 0 375.7 376"
	 style="enable-background:new 0 0 375.7 376;" xml:space="preserve">
<style type="text/css">
	.sun0{opacity:0.8;fill:#FFFB91;}
	.sun1{opacity:0.3;fill:#FFFCD1;}
	.sun2{opacity:0.5;fill:#FFE815;}
	.sun3{fill:#FCEA06;}
	.sun4{fill:#FBE02F;}
	.sun5{fill:#FCD001;}
	.sun6{fill:#FCF127;}
	.sun7{fill:#FBFB8E;}
	.sun8{fill:#FAFAF7;}
</style>
<g id="outer" transform-origin="200 200">
	<path class="sun0" d="M57.7,255.4c-6.9,0.2-16.5-1.1-26.1-1.6c-5.6-0.3-11.4-1-17.1-0.3c-6.7,0.9-12.4-2.4-13.9-7.8
		c-1.1-3.9-0.7-7.5,2.4-10.4c8.1-7.8,16.9-14.8,26.1-21.1c7.7-5.3,15.3-10.8,21.9-17.6c1.6-1.7,3.3-3.4,4.6-5.2
		c3.7-5.3,3.4-9-3-14.5c-10.5-9.1-22.6-16.2-33.7-24.5c-5.9-4.4-11.9-8.7-16.3-14.7c-3.9-5.5-2.5-10.3,3.4-13.3
		c4.3-2.2,8.9-2.8,13.6-3.5c5.6-0.7,11.2-0.9,16.8-0.4c5.3,0.5,10.6,0.2,15.9-0.1c8.9-0.5,17.8-0.8,26.6-1.9
		c5.8-0.7,7.7-3.9,5.9-10.7c-4.9-18-10.1-35.8-15.1-53.8c-0.9-3.4-2.5-6.6-1.6-10.4c1.7-6.8,8.9-10.6,14.9-7.2
		c8.6,4.9,16.8,10.2,25.2,15.5c8.7,5.4,17.3,11,26,16.4c2.4,1.5,5,2.6,7.6,3.5c4.8,1.8,8.1,0.5,10.4-4.5c2.5-5.3,4.6-10.9,6.7-16.4
		c5.5-14.1,11.5-28.1,17.4-42.1c1.2-2.9,3.1-5.1,5.5-7.1c3.8-3.2,9.7-2,12.8,2.7c5.1,7.7,8.4,16.3,12.2,24.7
		c4.4,9.6,7.3,19.8,11,29.6c1.2,3.2,2.7,6.2,4.9,8.8c2.4,2.8,5.3,4.2,9.2,3.3c4.7-1.2,8.7-3.7,12.6-6.3c14.9-9.9,29.8-19.8,45-29.2
		c4.1-2.5,8.5-3.5,12.8-0.8c4.6,2.9,6.9,8.8,5.4,14c-3.8,12.9-7.7,25.7-11.6,38.5c-1.6,5.3-3.4,10.7-5.1,16c-0.4,1.4-0.8,2.8-1,4.2
		c-1,8.1,4.5,10.6,10.2,11.2c0.6,0.1,1.2,0,1.8,0c10.7-0.4,21.3,0.4,31.9,0.7c8.8,0.2,17.5,1.1,26.4,1.1c1.9,0,3.8,0.4,5.7,0.7
		c5.6,1,8.4,4.8,9.4,10.1c0.9,4.9-1.3,8.9-4.9,11.7c-12.7,9.7-25.7,19.2-38.5,28.7c-3.9,2.8-7.4,6-10.2,9.8c-0.8,1.1-1.9,1.2-3,1.7
		c-4.5,2-5.2,4.6-1.2,8.1c8,6.9,16.6,13.3,24.8,20c8.1,6.6,17.1,12,25.6,18c4,2.8,7.1,6.4,7.6,11.5c0.7,7.2-4.6,13.4-12,14.1
		c-8,0.7-16,1.1-24,1.2c-13.2,0.3-26.3,0.7-39.5,1.2c-1.5,0-3.1,0.4-4.5,0.8c-3.5,1-5.1,3.5-4.1,7.1c3.7,13.2,7.5,26.3,11.2,39.5
		c1.8,6.3,3.5,12.6,5,19c0.8,3.2,0.8,6.6,0,9.8c-1.7,7-8.8,10.4-15.8,7.9c-9.2-3.2-17.1-8.3-24.6-14.5
		c-10.6-8.7-22.2-15.8-34.7-21.4c-5.1-2.3-7.9-1.2-10.3,3.9c-4.5,9.5-7.7,19.6-11.6,29.4c-3.6,9.2-6.6,18.6-11.1,27.4
		c-1.4,2.8-3.1,5.5-5.8,7.4c-5.9,4.1-12.3,3.1-16.3-3c-4.2-6.5-6.6-13.8-9.3-20.9c-5.1-13.2-9.5-26.6-15.8-39.2
		c-4.1-8.3-6.9-9.2-14.6-4.2c-17.3,11.4-35.1,22-52.5,33c-7.3,4.6-13.7,3.4-17.9-3.4c-2-3.2-1.7-6.6-0.7-10
		c5.7-19.3,11.4-38.7,17.1-58c0.5-1.6,0.9-3.2,0.9-4.8c0.2-3.4-2.2-5.6-6.2-6.5C72.7,255.2,66.6,255.4,57.7,255.4L57.7,255.4z"/>
	<path class="sun1" d="M297.8,326.9c0,4.4-1.1,5.1-4.4,4.5c-5.1-0.9-8.3-4.8-12.1-7.5c-13-9.2-25.3-19.4-38.7-28
		c-2.3-1.5-3.8-3.4-3.5-6.3c0.6-4.6,3.4-6,8.6-4.6c3.1,0.8,6,2.4,9.3,2.6c7.5,0.6,10.1-1.6,10.4-9.3c0.1-2.3,0.1-4.6,0-6.9
		c-0.1-2.8,0.8-4.8,3.7-5.6c3.6-1,6.8-0.2,8.4,2.2c2,3,2.7,6.7,3.9,10c3.7,10.2,7.3,20.5,10.7,30.8
		C296.1,315,296.7,321.5,297.8,326.9L297.8,326.9z"/>
	<path class="sun1" d="M329.3,245.1c-8.1,0-16.2,0.1-24.4,0c-2.7,0-5.2,0.8-8,0.6c-3.6-0.3-5.9-2-6.6-5.1c-0.6-2.6,0.3-4.4,2.6-5.7
		c2.5-1.4,5.3-2,8-2.9c9.7-3.4,11.2-8,5.5-16.4c-0.8-1.2-1.8-2.2-2.6-3.4c-2.5-3.1-2.8-5.7-1-7.9c3.1-3.7,6-4.4,9.7-2.3
		c2.8,1.6,5.4,3.5,8.1,5.3c8.8,6,17.6,11.9,26.3,18c5.3,3.8,9.8,8.5,14.5,13c2,1.9,1.6,3.4-0.6,4.9c-1.8,1.2-3.8,2-6.1,1.9
		C346.1,245,337.7,245.1,329.3,245.1L329.3,245.1z"/>
	<path class="sun1" d="M116.4,292.1c3.2,0.2,6.2-1,9.3-1.8c4.1-1,5.8-0.5,7.5,2.5c1.9,3.5,1.6,6.9-1.5,9.1c-5,3.7-10.2,7.2-15.4,10.7
		c-10.9,7.3-21.3,15.4-33.7,20.3c-1.9,0.8-4.1,2.9-6,1c-2.1-2.1-1.9-5.1-0.8-7.8c3.6-9.2,7.3-18.2,10.8-27.4
		c3.2-8.4,7.1-16.5,9.5-25.2c0.7-2.7,2.1-5.5,5.3-6.1c4.4-0.8,7,1.7,7.1,6.5c0,2.6-0.7,5.1-0.6,7.7c0.1,1.9,0.3,3.8,0.9,5.6
		C109.7,290.3,111.4,292.7,116.4,292.1L116.4,292.1z"/>
	<path class="sun1" d="M163.6,303.1c0.1-3.4,1.8-5.2,4.1-6.2c2.3-1,4.6-0.1,6.1,1.9c1.8,2.2,3.4,4.6,5,6.9c1.5,2.1,3.4,3.6,5.6,4.8
		c2.4,1.3,4.8,0.9,6.9-1c2.9-2.5,5.2-5.6,7.3-8.7c2-3,4.1-3.6,7.1-2.2c3.4,1.5,5.6,4.9,4.7,7.8c-3.4,11.5-7,22.9-10.2,34.5
		c-2,7.3-5.4,13.9-8.6,20.7c-0.9,2-1.5,4.9-4.4,4.5c-2.6-0.4-4.4-2.6-5.2-5.1c-2.3-7-4.4-14.1-6.6-21.1
		c-3.7-11.6-6.9-23.3-11.3-34.7C163.8,304.2,163.5,303.5,163.6,303.1L163.6,303.1z"/>
	<path class="sun1" d="M333.2,128.1c7.2-0.7,16.3,0.6,25.4,1.8c1.7,0.2,4,0.4,4.3,2.6c0.3,2.3-0.7,4.6-2.5,6.1
		c-4.4,3.6-9,7-13.5,10.5c-8.8,6.6-17.6,13.2-26.4,19.8c-1.9,1.4-3.2,3.5-5.3,4.8c-3,1.9-5.4,2.2-7.9,0.5c-2.7-1.8-3.5-4.1-2.5-7.8
		c1-3.8,2.3-7.6,2.9-11.5c0.4-2.5,0.4-5,0.2-7.4c-0.3-3.5-2.2-5.4-6.1-6.1c-2.2-0.4-4.3-1.1-4.5-3.5c-0.2-2.2,1-4,3.1-5.3
		c3.6-2.3,7.7-3.2,11.8-3.8C318.5,127.7,324.9,128.2,333.2,128.1L333.2,128.1z"/>
	<path class="sun1" d="M65.5,247.3c-12.2-0.6-24.4-0.9-36.5-1.8c-5-0.4-9.8-1.7-14.7-2.8c-2.6-0.6-3.1-1.9-1.9-4.1
		c0.9-1.6,1.9-3,3.6-3.9c12.4-7.4,24.7-14.8,37-22.2c2.6-1.6,5-3.5,7.6-5c1.9-1.1,4-1.4,5.9,0c3,2,3.1,4.4,0.9,7.5
		c-1.9,2.6-4.5,4.7-6.1,7.5c-2.9,5.2-2.2,8.1,3.1,10.8c1.9,1,4,1.7,6,2.6c3.6,1.5,4.3,2.6,3.8,5.9c-0.5,3.2-2.7,5.4-5.8,5.6
		C67.4,247.5,66.4,247.4,65.5,247.3C65.5,247.4,65.5,247.3,65.5,247.3L65.5,247.3z"/>
	<path class="sun1" d="M298.4,54.6c-0.5,3-2.5,6.4-4.1,9.9c-4,9.1-8.3,18-10.8,27.7c-0.6,2.2-1.5,4.3-2.7,6.2
		c-2.5,4.1-6.6,4.1-9.2-0.1c-1.9-3-2.8-6.4-4-9.7c-2.7-7.2-5.2-8.5-11.1-8.2c-2.1,0.1-4.3,0.1-5.3-1.9c-1.1-2.2,0.6-4.1,1.9-5.6
		c3.1-3.6,7-6.6,11.2-8.8c9.7-5.1,19.4-10.3,29.9-13.5C297.6,49.6,298.4,50.1,298.4,54.6L298.4,54.6z"/>
	<path class="sun1" d="M97.6,93.7c-2.7,0.4-4.3-1.2-5.1-3.8c-2.9-9.3-6-18.5-8.7-27.8c-1.1-3.9-1.6-8-2.1-12
		c-0.2-1.2-0.8-2.9,0.7-3.7c1.6-0.8,3.4-0.5,4.9,0.5c2.3,1.6,4.6,3.4,6.8,5.1c8.7,6.6,17.1,13.6,26.1,19.7c1.9,1.3,3.3,3,2.5,5.2
		c-0.8,2.3-1.3,4.9-4.9,5.5c-5.2,0.8-9.9,3-13,7.8C103.3,92.7,100.8,93.7,97.6,93.7L97.6,93.7z"/>
	<path class="sun1" d="M206.1,58.3c0,4.1-4.6,7.1-8,5.6c-5.2-2.3-10.4-3.2-15.9-1c-3.3,1.3-6.2,0-8.7-2.1c-2.3-2-1.3-4.6-0.6-6.9
		c2.4-7.8,5-15.4,7.2-23.2c1.4-4.9,3.9-9.2,6-13.7c0.6-1.2,0.8-3.2,2.9-2.9c1.9,0.3,3.2,1.5,3.8,3.4c2,6.4,4.1,12.8,6.2,19.1
		c2.1,6.5,3.8,13,6.5,19.3C205.9,56.7,206.2,57.6,206.1,58.3L206.1,58.3z"/>
	<path class="sun1" d="M66.7,139.9c0.2,1.4-0.4,2.5-1.5,3.6c-4,3.8-6.7,8.1-6.6,13.9c0,3.1-1.8,5.6-4.4,7.2c-1.9,1.2-3.8,0.9-5.5-0.5
		c-4.3-3.6-8.7-7.1-13-10.7c-6.2-5.2-12.4-10.4-17.4-16.8c-0.9-1.2-2.6-2.3-1.7-3.8c1-1.7,2.9-2.4,4.9-2.3
		c6.9,0.5,13.9,0.9,20.8,1.5c6.5,0.6,13.1,1.2,19.7,1.2C65,133.3,66.7,135.8,66.7,139.9L66.7,139.9z"/>
</g>
<g id="inner" transform-origin="200 200">
	<circle class="sun2" cx="188.3" cy="188.9" r="83.6"/>
	<circle class="sun3" cx="188.8" cy="185.7" r="68.8"/>
	<path class="sun4" d="M129.7,150.4c-1.9,11.2-5.7,22-6.9,33.4c-1.5,13.2,2.1,25.1,8.6,36.2c3.6,6.2,7.9,12.1,13.1,17.2
		c7.5,7.3,16.1,12.2,26.8,13.2c5.8,0.5,11.5,1.2,17.3,1.1c13.9-0.2,26.3-4.3,37.3-12.8c4.3-3.3,7.8-7.6,11.8-11.2
		c3.1-2.8,6.3-5.5,10.6-6.4c-2.9,11.4-11.3,18.4-20.1,25c-8.3,6.2-17.5,10.5-27.7,12.2c-13.2,2.1-26.1,0.3-38.5-4.9
		c-10.4-4.3-19.5-10.4-27-18.7c-9.4-10.4-15.3-22.4-17.5-36.4c-2.3-15.1,0.5-29.2,6.8-42.9C125.6,152.9,127.3,151.3,129.7,150.4
		L129.7,150.4z"/>
	<path class="sun4" d="M241.1,143c-4.4-1.1-7.9-3.9-10.8-7.1c-8-8.8-18.5-12.1-29.4-14.5c-14.5-3.2-28.2-0.3-41.6,5.5
		c-5.7,2.5-11.1,5.6-15.7,9.7c-2.8,2.5-5.3,5.6-6.7,9.1c-1.4,3.4-3.6,4.7-7.1,4.2c1.3-7.7,5.8-13.3,11.9-17.8
		c10.6-7.7,22-13.5,35.1-15.8c8.5-1.5,16.9-0.8,25.2,1c10.6,2.3,20.7,5.7,29.6,12.3c2.1,1.6,4.2,3.2,6.1,5.1
		C239.9,136.9,241.6,139.5,241.1,143L241.1,143z"/>
	<path class="sun4" d="M248.6,220.5c-1.4-3-0.3-5.9,1.1-8.4c4.5-7.8,5.8-16.1,5.2-24.9c-0.2-3.6,0.4-7.1,2.2-10.4
		c3.9,10.3,3,20.5-0.5,30.7C255,212.4,252.5,216.9,248.6,220.5L248.6,220.5z"/>
	<path class="sun4" d="M254.8,165.4c-3.7-1-5.7-4-7.5-7c-2.7-4.6-4.4-9.7-5.7-14.9c4.8,1.9,7,6.2,9,10.4
		C252.4,157.6,253.9,161.4,254.8,165.4L254.8,165.4z"/>
	<path class="sun5" d="M187.7,239.4c-9.2,0-18.2-1.2-26.3-6.1c-6.7-4-11.5-9.9-15.1-16.8c-2.3-4.4,0.1-8.5,4.9-9.3
		c5.8-0.9,11.5-0.6,17.3-0.2c7,0.4,14.1,0.1,21.2,0.2c12.6,0.1,25-1.5,37.3-3.6c2.7-0.4,4.7-0.1,6.3,2c1.5,1.9,1.3,4.4,0.4,6.3
		c-6.7,13.8-16.5,23.8-32.4,26.3C196.8,239,192.2,239.5,187.7,239.4L187.7,239.4z"/>
	<path class="sun6" d="M175.9,178.6c-9.8,0.5-19.9-1.8-29.5-5.8c-8-3.3-8.8-9.9-6.3-16c3.3-8.2,8.5-15.3,15.7-20.7
		c5.5-4.1,11.7-6.2,18.3-7.4c16.2-2.8,31.3,0.7,45.7,8c3.6,1.8,6.3,4.5,8.1,8.2c1.5,3.1,3.5,5.9,3.6,9.7c0.2,5.9-1.3,10.7-6,14.2
		c-4.1,3.2-9.1,4.3-14,5.4C200.1,176.7,188.5,178.8,175.9,178.6L175.9,178.6z"/>
	<path class="sun7" d="M181.1,171.1c-8.9,0.8-17.4-1-25.7-3.9c-2.8-1-5.5-2.4-7.1-5c-2.3-3.8-1.1-7.4,1-10.7
		c5.9-9.6,14.8-15.1,25.5-17.7c12-2.9,23.6-2.1,34.6,3.6c4.8,2.4,9,5.6,12.2,10.1c3.6,4.9,2.9,10-2.1,13.4
		c-7.8,5.3-16.5,8.4-25.8,9.9C189.4,171.3,185.2,170.8,181.1,171.1z"/>
	<path class="sun8" d="M186.7,152c-3.6-0.8-7.7-0.3-11.8-0.3c-2.8,0-3.8-1.6-4.2-3.8c-0.3-2.1,1-3.8,3-4.3c3.5-0.8,7.1-1.2,10.6-1.8
		c3-0.5,5.9-1.3,8.9-0.6c2.2,0.5,3.2,2,3.6,3.9c0.4,1.9-1.1,2.8-2.5,3.7C192,150.3,190,152.1,186.7,152L186.7,152z"/>
</g>
</svg>
